<svg version="1.0" xmlns="http://www.w3.org/2000/svg"
 width="22.000000pt" height="22.000000pt" viewBox="0 0 56.000000 56.000000"
 preserveAspectRatio="xMidYMid meet">
<metadata>
Created by potrace 1.16, written by Peter Selinger 2001-2019
</metadata>
<g transform="translate(0.000000,56.000000) scale(0.100000,-0.100000)"
fill="#db2331" stroke="none">
<path d="M120 530 c0 -27 -3 -30 -30 -30 -27 0 -30 -3 -30 -30 0 -27 -3 -30
-30 -30 l-30 0 0 -100 0 -100 30 0 c27 0 30 -3 30 -30 0 -27 3 -30 30 -30 27
0 30 -3 30 -30 0 -27 3 -30 30 -30 27 0 30 -3 30 -30 0 -27 3 -30 30 -30 27 0
30 -3 30 -30 0 -28 2 -30 40 -30 38 0 40 2 40 30 0 27 3 30 30 30 27 0 30 3
30 30 0 27 3 30 30 30 27 0 30 3 30 30 0 27 3 30 30 30 27 0 30 3 30 30 0 27
3 30 30 30 l30 0 0 100 0 100 -30 0 c-27 0 -30 3 -30 30 0 27 -3 30 -30 30
-27 0 -30 3 -30 30 l0 30 -65 0 -65 0 0 -30 c0 -27 -3 -30 -30 -30 -27 0 -30
3 -30 30 l0 30 -65 0 -65 0 0 -30z"/>
</g>
</svg>